<svg xmlns="http://www.w3.org/2000/svg" xmlns:xlink="http://www.w3.org/1999/xlink">


    <!-- User icon -->
    <symbol id="user-icon" viewBox="0 0 25.849 25.849">

        <g id="Grupo_26" transform="translate(-5 -5)">
            <path id="Caminho_15" data-name="Caminho 15" d="M39.915,23.3a4.064,4.064,0,1,0,4.064,4.064A4.069,4.069,0,0,0,39.915,23.3Z" transform="translate(-21.99 -13.047)" fill="#f6f6f6"/>
            <path id="Caminho_16" data-name="Caminho 16" d="M17.924,5A12.924,12.924,0,1,0,30.849,17.924,12.939,12.939,0,0,0,17.924,5Zm8.017,21.411v-.254c0-4.132-3.147-6.8-8.017-6.8s-8.018,2.67-8.018,6.8v.254a11.683,11.683,0,1,1,16.034,0Z" fill="#f6f6f6"/>
        </g>

    </symbol>

    <!-- info Contato -->
    <symbol id="infoContatoTel" viewBox="0 0 18.006 18.006">
        <path id="phone-alt-solid" d="M17.493,12.73l-3.939-1.688a.844.844,0,0,0-.985.243l-1.744,2.131A13.036,13.036,0,0,1,4.593,7.184L6.724,5.44a.842.842,0,0,0,.243-.985L5.279.516A.85.85,0,0,0,4.312.028L.654.872A.844.844,0,0,0,0,1.694,16.317,16.317,0,0,0,16.318,18.013a.844.844,0,0,0,.823-.654l.844-3.658a.854.854,0,0,0-.493-.971Z" transform="translate(0 -0.006)" fill="currentColor"/>
    </symbol>
    <symbol id="infoContatoMail" viewBox="0 0 16.547 12.41">
        <path id="envelope-regular" d="M15,64H1.551A1.551,1.551,0,0,0,0,65.551v9.307A1.551,1.551,0,0,0,1.551,76.41H15a1.551,1.551,0,0,0,1.551-1.551V65.551A1.551,1.551,0,0,0,15,64Zm0,1.551V66.87c-.725.59-1.88,1.508-4.35,3.441-.544.428-1.622,1.457-2.373,1.445-.75.012-1.828-1.017-2.373-1.445-2.469-1.934-3.625-2.851-4.35-3.441V65.551ZM1.551,74.859v-6c.741.59,1.791,1.418,3.391,2.671.706.556,1.943,1.783,3.331,1.776s2.6-1.2,3.33-1.776c1.6-1.253,2.651-2.081,3.392-2.671v6Z" transform="translate(0 -64)" fill="currentColor"/>
    </symbol>
    <symbol id="infoContatoMap" viewBox="0 0 12.926 21.017">
        <g id="Componente_1_1" data-name="Componente 1 – 1" transform="translate(0 0)">
            <path id="Caminho_114" data-name="Caminho 114" d="M32.465,10.981A6.463,6.463,0,0,0,26.9,20.725a1.369,1.369,0,0,0,.082.164l4.257,7.226a1.434,1.434,0,0,0,2.472,0l4.242-7.226a1.79,1.79,0,0,0,.082-.164,6.463,6.463,0,0,0-5.567-9.744Zm0,9.013a2.677,2.677,0,1,1,2.677-2.677v0A2.677,2.677,0,0,1,32.465,19.994Z" transform="translate(-26.003 -10.981)" fill="currentColor"/>
            <path id="Caminho_115" data-name="Caminho 115" d="M33.57,83.193h7.7a.784.784,0,0,1,.785.785h0a.785.785,0,0,1-.785.785h-7.7a.785.785,0,0,1-.785-.785h0A.784.784,0,0,1,33.57,83.193Z" transform="translate(-30.958 -63.745)" fill="currentColor"/>
        </g>
    </symbol>


    <!-- Social icons -->
    <symbol id="facebook-f" viewBox="0 0 320 512">
    
        <path fill="currentColor" d="M279.14 288l14.22-92.66h-88.91v-60.13c0-25.35 12.42-50.06 52.24-50.06h40.42V6.26S260.43 0 225.36 0c-73.22 0-121.08 44.38-121.08 124.72v70.62H22.89V288h81.39v224h100.17V288z"></path>

    </symbol>
    <symbol id="facebook" viewBox="0 0 448 512">
    
        <path fill="currentColor" d="M400 32H48A48 48 0 0 0 0 80v352a48 48 0 0 0 48 48h137.25V327.69h-63V256h63v-54.64c0-62.15 37-96.48 93.67-96.48 27.14 0 55.52 4.84 55.52 4.84v61h-31.27c-30.81 0-40.42 19.12-40.42 38.73V256h68.78l-11 71.69h-57.78V480H400a48 48 0 0 0 48-48V80a48 48 0 0 0-48-48z"></path>

    </symbol>
    <symbol id="instagram" viewBox="0 0 448 512">
    
        <path fill="currentColor" d="M224.1 141c-63.6 0-114.9 51.3-114.9 114.9s51.3 114.9 114.9 114.9S339 319.5 339 255.9 287.7 141 224.1 141zm0 189.6c-41.1 0-74.7-33.5-74.7-74.7s33.5-74.7 74.7-74.7 74.7 33.5 74.7 74.7-33.6 74.7-74.7 74.7zm146.4-194.3c0 14.9-12 26.8-26.8 26.8-14.9 0-26.8-12-26.8-26.8s12-26.8 26.8-26.8 26.8 12 26.8 26.8zm76.1 27.2c-1.7-35.9-9.9-67.7-36.2-93.9-26.2-26.2-58-34.4-93.9-36.2-37-2.1-147.9-2.1-184.9 0-35.8 1.7-67.6 9.9-93.9 36.1s-34.4 58-36.2 93.9c-2.1 37-2.1 147.9 0 184.9 1.7 35.9 9.9 67.7 36.2 93.9s58 34.4 93.9 36.2c37 2.1 147.9 2.1 184.9 0 35.9-1.7 67.7-9.9 93.9-36.2 26.2-26.2 34.4-58 36.2-93.9 2.1-37 2.1-147.8 0-184.8zM398.8 388c-7.8 19.6-22.9 34.7-42.6 42.6-29.5 11.7-99.5 9-132.1 9s-102.7 2.6-132.1-9c-19.6-7.8-34.7-22.9-42.6-42.6-11.7-29.5-9-99.5-9-132.1s-2.6-102.7 9-132.1c7.8-19.6 22.9-34.7 42.6-42.6 29.5-11.7 99.5-9 132.1-9s102.7-2.6 132.1 9c19.6 7.8 34.7 22.9 42.6 42.6 11.7 29.5 9 99.5 9 132.1s2.7 102.7-9 132.1z"></path>

    </symbol>
    <symbol id="linkedin-in" viewBox="0 0 448 512">
    
    <path fill="currentColor" d="M100.3,480H7.4V180.9h92.9V480z M53.8,140.1C24.1,140.1,0,115.5,0,85.8C0,56.1,24.1,32,53.8,32c29.7,0,53.8,24.1,53.8,53.8
        C107.6,115.5,83.5,140.1,53.8,140.1z M447.9,480h-92.7V334.4c0-34.7-0.7-79.2-48.3-79.2c-48.3,0-55.7,37.7-55.7,76.7V480h-92.8
        V180.9h89.1v40.8h1.3c12.4-23.5,42.7-48.3,87.9-48.3c94,0,111.3,61.9,111.3,142.3V480H447.9z"/>
    </symbol>
    <symbol id="linkedin" viewBox="0 0 14.368 14.367">
    
        <path id="linkedin-in-brands-2" data-name="linkedin-in-brands" d="M3.216,14.377H.237V4.785H3.216ZM1.725,3.476A1.733,1.733,0,1,1,3.45,1.735,1.74,1.74,0,0,1,1.725,3.476Zm12.639,10.9H11.392V9.708c0-1.113-.022-2.54-1.549-2.54-1.549,0-1.786,1.209-1.786,2.46v4.75H5.082V4.785H7.939V6.093H7.98A3.13,3.13,0,0,1,10.8,4.544c3.015,0,3.569,1.985,3.569,4.564v5.269Z" transform="translate(0 -0.01)" fill="currentColor"/>

    </symbol>
    <symbol id="twitter" viewBox="0 0 18.25 14.822">
    
        <path id="twitter-brands" d="M16.374,51.776c.012.162.012.324.012.486A10.569,10.569,0,0,1,5.744,62.9,10.57,10.57,0,0,1,0,61.225a7.738,7.738,0,0,0,.9.046,7.491,7.491,0,0,0,4.644-1.6,3.747,3.747,0,0,1-3.5-2.594,4.717,4.717,0,0,0,.706.058,3.956,3.956,0,0,0,.984-.127,3.741,3.741,0,0,1-3-3.671v-.046a3.767,3.767,0,0,0,1.691.475,3.746,3.746,0,0,1-1.158-5,10.632,10.632,0,0,0,7.712,3.914,4.222,4.222,0,0,1-.093-.857,3.744,3.744,0,0,1,6.473-2.559,7.364,7.364,0,0,0,2.374-.9A3.73,3.73,0,0,1,16.1,50.421a7.5,7.5,0,0,0,2.154-.579,8.04,8.04,0,0,1-1.876,1.934Z" transform="translate(0 -48.082)" fill="currentColor"/>

    </symbol>
    <symbol id="youtube" viewBox="0 0 576 512">
    
        <path fill="currentColor" d="M549.655 124.083c-6.281-23.65-24.787-42.276-48.284-48.597C458.781 64 288 64 288 64S117.22 64 74.629 75.486c-23.497 6.322-42.003 24.947-48.284 48.597-11.412 42.867-11.412 132.305-11.412 132.305s0 89.438 11.412 132.305c6.281 23.65 24.787 41.5 48.284 47.821C117.22 448 288 448 288 448s170.78 0 213.371-11.486c23.497-6.321 42.003-24.171 48.284-47.821 11.412-42.867 11.412-132.305 11.412-132.305s0-89.438-11.412-132.305zm-317.51 213.508V175.185l142.739 81.205-142.739 81.201z"></path>

    </symbol>

    <symbol id="whatsapp" viewBox="0 0 15.969 15.969">
    
        <path id="whatsapp-brands" d="M13.577,34.32A7.916,7.916,0,0,0,1.123,43.87L0,47.969l4.2-1.1a7.889,7.889,0,0,0,3.782.962h0a7.863,7.863,0,0,0,5.6-13.509ZM7.981,46.5a6.565,6.565,0,0,1-3.351-.916l-.239-.143L1.9,46.09l.663-2.427-.157-.25a6.59,6.59,0,1,1,12.223-3.5A6.651,6.651,0,0,1,7.981,46.5Zm3.607-4.926c-.2-.1-1.169-.577-1.351-.642s-.314-.1-.446.1-.51.642-.627.777-.232.15-.428.05A5.382,5.382,0,0,1,6.045,39.5c-.2-.349.2-.324.581-1.08a.366.366,0,0,0-.018-.346c-.05-.1-.446-1.073-.61-1.469s-.324-.331-.446-.339-.246-.007-.378-.007a.732.732,0,0,0-.528.246,2.222,2.222,0,0,0-.692,1.65,3.874,3.874,0,0,0,.806,2.046,8.835,8.835,0,0,0,3.379,2.987,3.869,3.869,0,0,0,2.374.5,2.025,2.025,0,0,0,1.333-.941,1.654,1.654,0,0,0,.114-.941C11.916,41.717,11.784,41.667,11.588,41.571Z" transform="translate(0 -32)" fill="currentColor"/>

    </symbol>

    <symbol id="messenger" viewBox="0 0 21 20.999">
    
        <path id="facebook-messenger-brands" d="M18.523,8C12.595,8,8,12.333,8,18.185a9.954,9.954,0,0,0,3.305,7.534c.354.318.281.5.341,2.465a.843.843,0,0,0,1.18.744c2.24-.986,2.269-1.064,2.649-.961C21.965,29.754,29,25.6,29,18.185A10.106,10.106,0,0,0,18.523,8Zm6.319,7.838-3.091,4.893a1.582,1.582,0,0,1-2.282.42l-2.459-1.84a.635.635,0,0,0-.762,0l-3.318,2.517a.5.5,0,0,1-.724-.663L15.3,16.271a1.582,1.582,0,0,1,2.282-.42l2.458,1.84a.635.635,0,0,0,.762,0l3.32-2.514a.5.5,0,0,1,.724.661Z" transform="translate(-8 -8)" fill="currentColor"/>

    </symbol>

    <symbol id="spotfy" viewBox="0 0 25.547 25.547">
        <path id="spotify-brands" d="M12.773,8A12.773,12.773,0,1,0,25.547,20.773,12.778,12.778,0,0,0,12.773,8ZM17.96,26.794a.983.983,0,0,1-.551-.185c-3.214-1.937-6.953-2.019-10.646-1.262a3.326,3.326,0,0,1-.613.134.8.8,0,0,1-.814-.814.816.816,0,0,1,.7-.865c4.218-.932,8.529-.85,12.207,1.349a.871.871,0,0,1,.5.85.778.778,0,0,1-.783.793Zm1.386-3.379a1.272,1.272,0,0,1-.634-.216A16.691,16.691,0,0,0,6.423,21.685a2.121,2.121,0,0,1-.613.134,1,1,0,0,1-1-1,1.013,1.013,0,0,1,.8-1.066,17.324,17.324,0,0,1,5.037-.7A18.03,18.03,0,0,1,19.763,21.4a1.074,1.074,0,0,1,.582,1.015A1,1,0,0,1,19.346,23.416Zm1.6-3.925a1.185,1.185,0,0,1-.664-.2C16.611,17.1,10.054,16.576,5.81,17.76a2.446,2.446,0,0,1-.664.134,1.189,1.189,0,0,1-1.2-1.216,1.217,1.217,0,0,1,.9-1.231,21.587,21.587,0,0,1,6.052-.783,21.753,21.753,0,0,1,10.579,2.462,1.209,1.209,0,0,1,.664,1.164A1.193,1.193,0,0,1,20.942,19.491Z" transform="translate(0 -8)"/>
    </symbol>

    <symbol id="soundCloud" viewBox="0 0 25.547 25.547">
        <path id="soundcloud-brands" d="M6.194,124.84l.323,3.614-.323,3.8a.263.263,0,0,1-.245.245.241.241,0,0,1-.234-.245l-.311-3.8.311-3.614a.239.239,0,0,1,.234-.234A.266.266,0,0,1,6.194,124.84Zm1.19-2.536a.286.286,0,0,0-.278.278l-.278,5.872.278,3.8a.286.286,0,0,0,.278.278.272.272,0,0,0,.261-.278l.323-3.8-.323-5.872A.272.272,0,0,0,7.384,122.3Zm1.418-1.34a.307.307,0,0,0-.311.295l-.245,7.229.245,3.77a.307.307,0,0,0,.311.295.293.293,0,0,0,.295-.295l.295-3.77L9.1,121.259A.293.293,0,0,0,8.8,120.965ZM.4,126.336c-.078,0-.122.061-.139.139L0,128.455.261,130.4c.017.078.061.139.139.139s.122-.061.139-.139l.311-1.946-.311-1.98c-.017-.078-.061-.139-.139-.139Zm1.312-1.218a.138.138,0,0,0-.139.139l-.356,3.2.356,3.119a.142.142,0,0,0,.139.156.165.165,0,0,0,.156-.139l.4-3.136-.4-3.2A.165.165,0,0,0,1.713,125.118Zm1.407-.634a.193.193,0,0,0-.183.184l-.323,3.787.323,3.659a.2.2,0,0,0,.183.172.173.173,0,0,0,.172-.172l.384-3.659-.384-3.787A.176.176,0,0,0,3.119,124.484Zm1.407-.122a.2.2,0,0,0-.2.2L4,128.455l.323,3.77a.2.2,0,0,0,.2.2.221.221,0,0,0,.217-.2l.356-3.77-.356-3.892a.221.221,0,0,0-.217-.2ZM17.949,118.2a.434.434,0,0,0-.234-.078.511.511,0,0,0-.311.106.57.57,0,0,0-.183.373v.044l-.183,9.825.095,1.807.095,1.763a.508.508,0,0,0,.495.478.482.482,0,0,0,.478-.478l.217-3.57L18.2,118.6a.535.535,0,0,0-.25-.4Zm-1.485.851a.489.489,0,0,0-.245-.078.472.472,0,0,0-.245.078.439.439,0,0,0-.2.373l-.017.095-.156,8.941s0,.017.172,3.648v.017a.419.419,0,0,0,.095.261.477.477,0,0,0,.356.172.451.451,0,0,0,.311-.139.383.383,0,0,0,.139-.311l.017-.373.172-3.258-.183-9.052a.5.5,0,0,0-.217-.373ZM10.27,120.3a.338.338,0,0,0-.323.339L9.7,128.455l.245,3.737a.331.331,0,0,0,.662,0l.278-3.737-.278-7.818A.348.348,0,0,0,10.27,120.3Zm20.946,3.492a4.466,4.466,0,0,0-1.7.339,7.727,7.727,0,0,0-7.69-7.028,7.582,7.582,0,0,0-2.8.523c-.339.122-.434.245-.434.512v13.884a.524.524,0,0,0,.478.512H31.211a4.371,4.371,0,0,0,.006-8.741Zm-16.5-3.353a.441.441,0,0,0-.434.434l-.183,7.6.183,3.648a.438.438,0,0,0,.434.417.413.413,0,0,0,.417-.417l.217-3.648-.217-7.6A.427.427,0,0,0,14.719,120.436ZM11.738,120a.377.377,0,0,0-.356.373l-.217,8.079.217,3.72a.364.364,0,0,0,.728,0l.245-3.72-.245-8.079A.392.392,0,0,0,11.738,120Zm1.485.189a.381.381,0,0,0-.384.384l-.217,7.879.217,3.692a.392.392,0,0,0,.384.384.384.384,0,0,0,.384-.384l.234-3.692-.234-7.879a.377.377,0,0,0-.384-.384Z" transform="translate(0 -117.1)"/>
    </symbol>


    <symbol id="ctaIcon" viewBox="0 0 100.882 14.857">
        <g transform="translate(0 14.857) rotate(-90)">
            <path d="M301.335,148.635l6.208-7.482c.57-.859.228-1.314-.8-1.415H302.3V49.365A1.453,1.453,0,0,0,300.766,48h0a1.471,1.471,0,0,0-1.595,1.365v90.373h-4.784c-1.481.051-1.709.556-1.139,1.415l7.005,7.482A.715.715,0,0,0,301.335,148.635Z" transform="translate(-292.961 -48)" fill="currentColor" fill-rule="evenodd"/>
        </g>
    </symbol>

    <!-- play -->
    <symbol id="playVideo" viewBox="0 0 143 143">

        <g id="Grupo_761" data-name="Grupo 761" transform="translate(-1278 -483)">
            <g id="Elipse_2" data-name="Elipse 2" transform="translate(1278 483)" fill="rgba(0,0,0,0)" stroke="currentColor" stroke-width="8">
                <circle cx="71.5" cy="71.5" r="71.5" stroke="none"/>
                <circle cx="71.5" cy="71.5" r="67.5" fill="none"/>
            </g>
            <g id="Polígono_2" data-name="Polígono 2" transform="translate(1374.552 524.29) rotate(90)" fill="currentColor">
                <path d="M25.108,6.078a6,6,0,0,1,9.467,0l17.563,22.55A6,6,0,0,1,47.4,38.315H12.278a6,6,0,0,1-4.734-9.687Z" stroke="none"/>
                <path d="M 29.8411865234375 4.764579772949219 C 28.28839683532715 4.764579772949219 26.8505973815918 5.467189788818359 25.89645767211914 6.6922607421875 L 8.333457946777344 29.24227142333984 C 7.724994659423828 30.02352142333984 7.361957550048828 30.93775177001953 7.283596038818359 31.88614082336426 C 7.209815979003906 32.77919006347656 7.383495330810547 33.68646240234375 7.785877227783203 34.50987243652344 C 8.188255310058594 35.33329010009766 8.797317504882812 36.02780151367188 9.547218322753906 36.51832962036133 C 10.34359741210938 37.03926086425781 11.28794479370117 37.31460952758789 12.2781867980957 37.31460952758789 L 47.4041862487793 37.31460952758789 C 48.39442443847656 37.31460952758789 49.33877563476562 37.03926086425781 50.13515472412109 36.51832962036133 C 50.88505554199219 36.02780151367188 51.49411773681641 35.33329010009766 51.8964958190918 34.50987243652344 C 52.29887771606445 33.68646240234375 52.47255706787109 32.77919006347656 52.39876556396484 31.88615036010742 C 52.32040786743164 30.93775177001953 51.95736694335938 30.02352142333984 51.34890747070312 29.24227905273438 L 33.78590393066406 6.6922607421875 C 32.83176422119141 5.467189788818359 31.39397621154785 4.764579772949219 29.8411865234375 4.764579772949219 M 29.84118461608887 3.764579772949219 C 31.60747337341309 3.764579772949219 33.37376403808594 4.535652160644531 34.57484436035156 6.077789306640625 L 52.13784790039062 28.62781143188477 C 55.20694732666016 32.56838226318359 52.39892578125 38.31460952758789 47.4041862487793 38.31460952758789 L 12.2781867980957 38.31460952758789 C 7.283447265625 38.31460952758789 4.475425720214844 32.56838226318359 7.544517517089844 28.62781143188477 L 25.10751724243164 6.077789306640625 C 26.3086051940918 4.535652160644531 28.07489585876465 3.764579772949219 29.84118461608887 3.764579772949219 Z" stroke="none" fill="rgba(0,0,0,0)"/>
            </g>
        </g>

    </symbol>

    <symbol id="playCta" viewBox="0 0 20.5 30.168">
    
        <g id="Polígono_6" data-name="Polígono 6" transform="translate(20.5) rotate(90)" fill="currentColor">
            <path d="M12.668,3.284a3,3,0,0,1,4.833,0l9.152,12.438A3,3,0,0,1,24.236,20.5H5.932a3,3,0,0,1-2.416-4.778Z" stroke="none"/>
            <path d="M 15.08421039581299 3.061901092529297 C 14.44142055511475 3.061901092529297 13.85427093505859 3.358842849731445 13.47331047058105 3.876571655273438 L 4.321161270141602 16.31467247009277 C 3.864789962768555 16.93490219116211 3.799800872802734 17.71543121337891 4.147319793701172 18.40259170532227 C 4.494831085205078 19.08975219726562 5.162031173706055 19.50000190734863 5.932069778442383 19.50000190734863 L 24.23635101318359 19.50000190734863 C 25.00638961791992 19.50000190734863 25.6735897064209 19.08975219726562 26.0211009979248 18.40259170532227 C 26.36861991882324 17.71543121337891 26.30363082885742 16.93490219116211 25.84725952148438 16.31467247009277 L 16.69511032104492 3.876571655273438 C 16.31415176391602 3.358842849731445 15.72700023651123 3.061901092529297 15.08421039581299 3.061901092529297 M 15.08421039581299 2.061899185180664 C 15.99266052246094 2.061899185180664 16.9011116027832 2.469236373901367 17.50056076049805 3.283912658691406 L 26.6527099609375 15.72201156616211 C 28.11037063598633 17.70303153991699 26.69588088989258 20.50000190734863 24.23635101318359 20.50000190734863 L 5.932069778442383 20.50000190734863 C 3.472539901733398 20.50000190734863 2.058050155639648 17.70303153991699 3.515710830688477 15.72201156616211 L 12.66786003112793 3.283912658691406 C 13.26731109619141 2.469236373901367 14.17576026916504 2.061899185180664 15.08421039581299 2.061899185180664 Z" stroke="none" fill="rgba(47,82,113,0)"/>
        </g>
        
    </symbol>

    <symbol id="playVideoBox" viewBox="0 0 36.968 56.035">
        <g id="Grupo_37" data-name="Grupo 37" transform="translate(-529.266 -629.982)">
            <g id="Polígono_8" data-name="Polígono 8" transform="translate(566.234 629.982) rotate(90)" fill="currentColor">
                <path d="M23.236,6.309a6,6,0,0,1,9.564,0L48.741,27.344a6,6,0,0,1-4.782,9.624H12.076a6,6,0,0,1-4.782-9.624Z" stroke="none"/>
                <path d="M 28.01768112182617 4.933456420898438 C 26.43887138366699 4.933456420898438 24.9864501953125 5.655105590820312 24.03282928466797 6.913364410400391 L 8.091041564941406 27.94767570495605 C 6.918991088867188 29.49412536621094 6.734729766845703 31.45483589172363 7.598140716552734 33.19257736206055 C 8.461540222167969 34.93031692504883 10.13547134399414 35.96777725219727 12.07588195800781 35.96777725219727 L 43.95947265625 35.96777725219727 C 45.8998908996582 35.96777725219727 47.57382202148438 34.93031692504883 48.43722152709961 33.19257736206055 C 49.30063247680664 31.45483589172363 49.11637115478516 29.49412536621094 47.94432067871094 27.94767570495605 L 32.00253295898438 6.913364410400391 C 31.04890060424805 5.655105590820312 29.59648132324219 4.933456420898438 28.01768112182617 4.933456420898438 M 28.01767730712891 3.933460235595703 C 29.80836296081543 3.933460235595703 31.59905052185059 4.725421905517578 32.79949951171875 6.309345245361328 L 48.74129104614258 27.34365463256836 C 51.73614120483398 31.29518508911133 48.91767120361328 36.96777725219727 43.95947265625 36.96777725219727 L 12.07588195800781 36.96777725219727 C 7.117691040039062 36.96777725219727 4.299221038818359 31.29518508911133 7.294071197509766 27.34365463256836 L 23.23586273193359 6.309345245361328 C 24.43630599975586 4.725421905517578 26.22699165344238 3.933460235595703 28.01767730712891 3.933460235595703 Z" stroke="none" fill="rgba(47,82,113,0)"/>
            </g>
            <g id="Retângulo_109" data-name="Retângulo 109" transform="matrix(0.788, -0.616, 0.616, 0.788, 547.492, 679.106)" fill="currentColor" stroke="rgba(47,82,113,0)" stroke-width="1">
                <rect width="19.457" height="3.113" rx="1.557" stroke="none"/>
                <rect x="0.5" y="0.5" width="18.457" height="2.113" rx="1.057" fill="none"/>
            </g>
        </g>
    </symbol>

    <!-- navslide -->
    <symbol id="prevSlide" viewBox="0 0 14.035 21.704">
        
        <g transform="matrix(0.017, 1, -1, 0.017, 13.66, 0)" fill="currentColor">
            <path d="M2.078,0H0L10.734,13.662,21.469,0H19.391L10.734,11.018,2.078,0Z" stroke="none"/>
            <path d="M 2.077444076538086 4.76837158203125e-06 L 2.077632904052734 4.76837158203125e-06 L 2.077762603759766 0.0001544952392578125 L 10.7344331741333 11.01787376403809 L 19.39142417907715 0.0001544952392578125 L 21.46868324279785 0.0008840560913085938 L 10.7344331741333 13.66232395172119 L 3.814697265625e-06 0.0001544952392578125 L 2.077444076538086 4.76837158203125e-06 Z" stroke="none" fill="currentColor"/>
        </g>

    </symbol>
    <symbol id="nextSlide" viewBox="0 0 14.035 21.704">
        
        <g transform="matrix(-0.017, 1, -1, -0.017, 14.035, 0.238)" fill="currentColor">
            <path d="M2.078,13.662H0L10.734,0,21.469,13.661H19.391L10.734,2.644,2.078,13.662Z" stroke="none"/>
            <path d="M 2.077643632888794 13.66232299804688 L 2.077443599700928 13.66232299804688 L 3.528747583914082e-06 13.6621732711792 L 10.7344331741333 3.406372115932754e-06 L 21.46868324279785 13.66144371032715 L 19.39142417907715 13.6621732711792 L 10.7344331741333 2.644453525543213 L 2.077763557434082 13.6621732711792 L 2.077643632888794 13.66232299804688 Z" stroke="none" fill="currentColor"/>
        </g>

    </symbol>

     <symbol id="prevCaroucel" viewBox="0 0 18.882 8.857">
        <g  transform="translate(18.882) rotate(90)" opacity="0.6">
            <path  d="M297.953,136.731l3.7-4.575c.34-.525.136-.8-.475-.865H298.53V118.835a.875.875,0,0,0-.917-.835h0a.885.885,0,0,0-.951.835v12.457h-2.852c-.883.031-1.019.34-.679.865l4.176,4.575A.419.419,0,0,0,297.953,136.731Z" transform="translate(-292.961 -118)" fill="currentColor" fill-rule="evenodd"/>
        </g>

    </symbol>
    <symbol id="nextCaroucel" viewBox="0 0 18.882 8.857">
        
        <g transform="translate(0 8.857) rotate(-90)">
            <path  d="M297.953,136.731l3.7-4.575c.34-.525.136-.8-.475-.865H298.53V118.835a.875.875,0,0,0-.917-.835h0a.885.885,0,0,0-.951.835v12.457h-2.852c-.883.031-1.019.34-.679.865l4.176,4.575A.419.419,0,0,0,297.953,136.731Z" transform="translate(-292.961 -118)" fill="currentColor" fill-rule="evenodd"/>
        </g>

    </symbol>



    <!-- filtrar -->
    <symbol id="filtarpor" viewBox="0 0 21.646 18.782">

        <g id="Grupo_25" data-name="Grupo 25" transform="translate(-8.5 -11.609)">
            <path id="Caminho_14" data-name="Caminho 14" d="M30.146,27.655a.69.69,0,0,1-.691.691H21.967a2.731,2.731,0,0,1-5.287,0H9.191a.691.691,0,1,1,0-1.382h7.489a2.731,2.731,0,0,1,5.287,0h7.489a.693.693,0,0,1,.691.691ZM9.191,15.036h1.5a2.731,2.731,0,0,0,5.287,0H29.455a.691.691,0,0,0,0-1.382H15.979a2.731,2.731,0,0,0-5.287,0h-1.5a.691.691,0,0,0,0,1.382Zm20.264,5.273h-1.5a2.731,2.731,0,0,0-5.287,0H9.191a.691.691,0,1,0,0,1.382H22.667a2.731,2.731,0,0,0,5.287,0h1.5a.691.691,0,0,0,0-1.382Z"/>
        </g>

    </symbol>

    <symbol id="filtro" viewBox="0 0 14.481 12.864">

        <path d="M34.385,23.782l-5.766,6.248v5.814a.319.319,0,0,1-.458.289l-2.171-.965a.313.313,0,0,1-.193-.289V30.031l-5.742-6.248a.288.288,0,0,1,.217-.482h13.92A.3.3,0,0,1,34.385,23.782Z" transform="translate(-19.977 -23.3)" fill="currentColor"/>

    </symbol>


    <symbol id="playVideo" viewBox="0 0 143 143">
        
        <g transform="translate(-1101 -5784)">
            <g transform="translate(1101 5784)" fill="rgba(0,0,0,0)" stroke="currenColor" stroke-width="8">
                <circle cx="71.5" cy="71.5" r="71.5" stroke="none"/>
                <circle cx="71.5" cy="71.5" r="67.5" fill="none"/>
            </g>
            <g transform="translate(1197.552 5825.291) rotate(90)" fill="currenColor">
                <path d="M25.108,6.078a6,6,0,0,1,9.467,0l17.563,22.55A6,6,0,0,1,47.4,38.315H12.278a6,6,0,0,1-4.734-9.687Z" stroke="none"/>
                <path d="M 29.8411865234375 4.764579772949219 C 28.28839683532715 4.764579772949219 26.8505973815918 5.467189788818359 25.89645767211914 6.6922607421875 L 8.333457946777344 29.24227142333984 C 7.724994659423828 30.02352142333984 7.361957550048828 30.93775177001953 7.283596038818359 31.88614082336426 C 7.209815979003906 32.77919006347656 7.383495330810547 33.68646240234375 7.785877227783203 34.50987243652344 C 8.188255310058594 35.33329010009766 8.797317504882812 36.02780151367188 9.547218322753906 36.51832962036133 C 10.34359741210938 37.03926086425781 11.28794479370117 37.31460952758789 12.2781867980957 37.31460952758789 L 47.4041862487793 37.31460952758789 C 48.39442443847656 37.31460952758789 49.33877563476562 37.03926086425781 50.13515472412109 36.51832962036133 C 50.88505554199219 36.02780151367188 51.49411773681641 35.33329010009766 51.8964958190918 34.50987243652344 C 52.29887771606445 33.68646240234375 52.47255706787109 32.77919006347656 52.39876556396484 31.88615036010742 C 52.32040786743164 30.93775177001953 51.95736694335938 30.02352142333984 51.34890747070312 29.24227905273438 L 33.78590393066406 6.6922607421875 C 32.83176422119141 5.467189788818359 31.39397621154785 4.764579772949219 29.8411865234375 4.764579772949219 M 29.84118461608887 3.764579772949219 C 31.60747337341309 3.764579772949219 33.37376403808594 4.535652160644531 34.57484436035156 6.077789306640625 L 52.13784790039062 28.62781143188477 C 55.20694732666016 32.56838226318359 52.39892578125 38.31460952758789 47.4041862487793 38.31460952758789 L 12.2781867980957 38.31460952758789 C 7.283447265625 38.31460952758789 4.475425720214844 32.56838226318359 7.544517517089844 28.62781143188477 L 25.10751724243164 6.077789306640625 C 26.3086051940918 4.535652160644531 28.07489585876465 3.764579772949219 29.84118461608887 3.764579772949219 Z" stroke="none" fill="rgba(0,0,0,0)"/>
            </g>
        </g>

    </symbol>


    <!-- nav up -->
    <symbol id="navUp" viewBox="0 0 13.469 5.662">
    
        <g fill="currentColor">
            <path d="M1.3,5.662H0L6.734,0l6.734,5.662h-1.3L6.734,1.1,1.3,5.662Z" stroke="none"/>
            <path d="M 1.303433537483215 5.662323474884033 L 1.303313493728638 5.662323474884033 L 3.528747583914082e-06 5.662263870239258 L 6.734403610229492 3.644790695034317e-06 L 13.46868324279785 5.66196346282959 L 12.16548347473145 5.662263870239258 L 6.734403610229492 1.095993638038635 L 1.303513526916504 5.662263870239258 L 1.303433537483215 5.662323474884033 Z" stroke="none" fill="rgba(0,0,0,0)"/>
        </g>

    </symbol>

    <!-- nav down -->
    <symbol id="navDown" viewBox="0 0 13.469 5.662">

        <g fill="currentColor">
            <path d="M1.3,0H0L6.734,5.662,13.469,0h-1.3L6.734,4.566,1.3,0Z" stroke="none"/>
            <path d="M 1.303303718566895 4.76837158203125e-06 L 1.303434371948242 4.76837158203125e-06 L 1.303513526916504 6.4849853515625e-05 L 6.734374046325684 4.566164970397949 L 12.16543388366699 6.4849853515625e-05 L 13.46862411499023 0.0003647804260253906 L 6.734374046325684 5.662104606628418 L 3.814697265625e-06 6.4849853515625e-05 L 1.303303718566895 4.76837158203125e-06 Z" stroke="none" fill="rgba(0,0,0,0)"/>
        </g>

    </symbol>

   

    <symbol id="filtroConteudos" viewBox="0 0 21.646 18.782">

        <g transform="translate(-8.5 -11.609)">
            <path d="M30.146,27.655a.69.69,0,0,1-.691.691H21.967a2.731,2.731,0,0,1-5.287,0H9.191a.691.691,0,1,1,0-1.382h7.489a2.731,2.731,0,0,1,5.287,0h7.489a.693.693,0,0,1,.691.691ZM9.191,15.036h1.5a2.731,2.731,0,0,0,5.287,0H29.455a.691.691,0,0,0,0-1.382H15.979a2.731,2.731,0,0,0-5.287,0h-1.5a.691.691,0,0,0,0,1.382Zm20.264,5.273h-1.5a2.731,2.731,0,0,0-5.287,0H9.191a.691.691,0,1,0,0,1.382H22.667a2.731,2.731,0,0,0,5.287,0h1.5a.691.691,0,0,0,0-1.382Z" fill="currentColor"/>
        </g>

    </symbol>

    <symbol id="conteudosVoltar" viewBox="0 0 27.745 7.226">
        <path d="M80.87,340.226v-2.834h22.874v-1.2H80.87V333L76,336.713Z" transform="translate(-76 -333)" fill-rule="evenodd"/>
    </symbol>


    <!-- Arrow Slides menores -->
    <symbol id="caroucelNavPrev" viewBox="0 0 7.736 16.168">
        <path  d="M30.891,970.508l.329.392,6.477,7.692.93-.784-6.148-7.3,6.148-7.3-.93-.784-6.477,7.692Z" transform="translate(-30.891 -962.425)" fill="currentColor"/>
    </symbol>
    <symbol id="caroucelNavNext" viewBox="0 0 7.736 16.168">
        <path  d="M38.627,970.508l-.329.392-6.477,7.692-.93-.784,6.148-7.3-6.148-7.3.93-.784,6.477,7.692Z" transform="translate(-30.891 -962.425)" fill="currentColor"/>
    </symbol>


    <symbol id="openWindow" viewBox="0 0 18.848 18.848">
        <g id="Grupo_97" data-name="Grupo 97" transform="translate(-1460 -2233)">
            <g id="Componente_10_1" data-name="Componente 10 – 1" transform="translate(1460 2233)">
                <path id="Caminho_10" data-name="Caminho 10" d="M13.308,22.472H3.1a2.1,2.1,0,0,1-2.1-2.1H1V10.165a2.105,2.105,0,0,1,2.1-2.1H13.308a2.1,2.1,0,0,1,2.1,2.1h0V20.374A2.105,2.105,0,0,1,13.308,22.472ZM3.1,9.317a.848.848,0,0,0-.842.848V20.374a.842.842,0,0,0,.842.842H13.308a.848.848,0,0,0,.848-.842V10.165a.848.848,0,0,0-.848-.848H3.1Z" transform="translate(-1 -3.625)" fill="currentColor"/>
                <path id="Caminho_11" data-name="Caminho 11" d="M20.374,15.412H16.78V7.54a.848.848,0,0,0-.848-.848H8.06V3.1a2.105,2.105,0,0,1,2.1-2.1H20.374a2.1,2.1,0,0,1,2.1,2.1h0V13.308A2.105,2.105,0,0,1,20.374,15.412Zm-2.337-1.257h2.337a.848.848,0,0,0,.842-.848V3.1a.842.842,0,0,0-.842-.842H10.165a.848.848,0,0,0-.848.842V5.435h6.616a2.1,2.1,0,0,1,2.1,2.1h0Z" transform="translate(-3.625 -1)" fill="currentColor"/>
            </g>
        </g>
    </symbol>

    <symbol id="goToUp" viewBox="0 0 31.485 29.509">
    
        <g id="Grupo_46" data-name="Grupo 46" transform="translate(-1426.691 -2136.491)">
        <g id="Componente_13" data-name="Componente 13" transform="translate(1473.176 2134.491) rotate(90)">
        <path id="Caminho_292" data-name="Caminho 292" d="M4.31,7.844A.713.713,0,0,0,4.744,6.6L2.566,4.633H28.8a.746.746,0,0,0,.711-.711.746.746,0,0,0-.711-.711H2.566L4.744,1.245a.726.726,0,0,0,.2-.767A.728.728,0,0,0,4.31,0,.72.72,0,0,0,3.788.19L.233,3.389a.726.726,0,0,0,0,1.066l3.555,3.2A.72.72,0,0,0,4.31,7.844Z" transform="translate(2 15)"/>
        </g>
        <g id="Componente_14" data-name="Componente 14" transform="translate(1422.745 2146.296)">
        <path id="Caminho_292-2" data-name="Caminho 292" d="M2.566,4.633H28.8a.746.746,0,0,0,.711-.711.746.746,0,0,0-.711-.711H2.566A.718.718,0,0,0,2.566,4.633Z" transform="translate(2 15)"/>
        </g>
    </g>

    </symbol>

    <symbol id="scrolling" viewBox="0 0 7 129">
        <g id="Grupo_6" data-name="Grupo 6" transform="translate(-1870 -498)">
            <g id="Elipse_1" data-name="Elipse 1" transform="translate(1870 498)" fill="currentColor" stroke="rgba(47,82,113,0)" stroke-width="1">
            <circle cx="3.5" cy="3.5" r="3.5" stroke="none"/>
            <circle cx="3.5" cy="3.5" r="3" fill="none"/>
            </g>
            <g id="Retângulo_5" data-name="Retângulo 5" transform="translate(1873 522)" fill="currentColor" stroke="rgba(47,82,113,0)" stroke-width="1">
            <rect width="1" height="105" stroke="none"/>
            <rect x="0.5" y="0.5" height="104" fill="none"/>
            </g>
        </g>
    </symbol>


</svg>