<svg xmlns="http://www.w3.org/2000/svg" xmlns:xlink="http://www.w3.org/1999/xlink">

    <defs>

    <style>

        .symbols {
            display:none;
        }
        .symbols:target {
            display:inline;
        }

    </style>

    </defs>

    <use xlink:href="#infoContatoTel" />
    <use xlink:href="#infoMap" />
    <use xlink:href="#facebook" />
    <use xlink:href="#instagram" />
    <use xlink:href="#linkedin-in" />
    <use xlink:href="#twitter" />
    <use xlink:href="#youtube" />
    <use xlink:href="#whatsapp" />
    <use xlink:href="#playVideo" />
    <use xlink:href="#prevSlide" />
    <use xlink:href="#nextSlide" />
    <use xlink:href="#prevSlideCustom" />
    <use xlink:href="#nextSlideCustom" />
    <use xlink:href="#downPage" />
    <use xlink:href="#upPage" />
    <use xlink:href="#sendNewsletter" />
    <use xlink:href="#btnMais" />
    <use xlink:href="#topo" />
    <use xlink:href="#rightCTA" />

    
    <!-- info Contato -->
    <symbol class="symbols" id="infoContatoTel" viewBox="0 0 18.006 18.006">
        <path id="phone-alt-solid" d="M17.493,12.73l-3.939-1.688a.844.844,0,0,0-.985.243l-1.744,2.131A13.036,13.036,0,0,1,4.593,7.184L6.724,5.44a.842.842,0,0,0,.243-.985L5.279.516A.85.85,0,0,0,4.312.028L.654.872A.844.844,0,0,0,0,1.694,16.317,16.317,0,0,0,16.318,18.013a.844.844,0,0,0,.823-.654l.844-3.658a.854.854,0,0,0-.493-.971Z" transform="translate(0 -0.006)" fill="currentColor"/>
    </symbol>
    <symbol class="symbols" id="infoMap" viewBox="0 0 384 512">
        <path fill="currentColor" d="M172.268 501.67C26.97 291.031 0 269.413 0 192 0 85.961 85.961 0 192 0s192 85.961 192 192c0 77.413-26.97 99.031-172.268 309.67-9.535 13.774-29.93 13.773-39.464 0zM192 272c44.183 0 80-35.817 80-80s-35.817-80-80-80-80 35.817-80 80 35.817 80 80 80z"></path>
    </symbol>


    <!-- Social icons -->
    <symbol class="symbols" id="facebook" viewBox="0 0 448 512">
    
        <path fill="currentColor" d="M400 32H48A48 48 0 0 0 0 80v352a48 48 0 0 0 48 48h137.25V327.69h-63V256h63v-54.64c0-62.15 37-96.48 93.67-96.48 27.14 0 55.52 4.84 55.52 4.84v61h-31.27c-30.81 0-40.42 19.12-40.42 38.73V256h68.78l-11 71.69h-57.78V480H400a48 48 0 0 0 48-48V80a48 48 0 0 0-48-48z"></path>

    </symbol>
    <symbol class="symbols" id="instagram" viewBox="0 0 448 512">
    
        <path fill="currentColor" d="M224.1 141c-63.6 0-114.9 51.3-114.9 114.9s51.3 114.9 114.9 114.9S339 319.5 339 255.9 287.7 141 224.1 141zm0 189.6c-41.1 0-74.7-33.5-74.7-74.7s33.5-74.7 74.7-74.7 74.7 33.5 74.7 74.7-33.6 74.7-74.7 74.7zm146.4-194.3c0 14.9-12 26.8-26.8 26.8-14.9 0-26.8-12-26.8-26.8s12-26.8 26.8-26.8 26.8 12 26.8 26.8zm76.1 27.2c-1.7-35.9-9.9-67.7-36.2-93.9-26.2-26.2-58-34.4-93.9-36.2-37-2.1-147.9-2.1-184.9 0-35.8 1.7-67.6 9.9-93.9 36.1s-34.4 58-36.2 93.9c-2.1 37-2.1 147.9 0 184.9 1.7 35.9 9.9 67.7 36.2 93.9s58 34.4 93.9 36.2c37 2.1 147.9 2.1 184.9 0 35.9-1.7 67.7-9.9 93.9-36.2 26.2-26.2 34.4-58 36.2-93.9 2.1-37 2.1-147.8 0-184.8zM398.8 388c-7.8 19.6-22.9 34.7-42.6 42.6-29.5 11.7-99.5 9-132.1 9s-102.7 2.6-132.1-9c-19.6-7.8-34.7-22.9-42.6-42.6-11.7-29.5-9-99.5-9-132.1s-2.6-102.7 9-132.1c7.8-19.6 22.9-34.7 42.6-42.6 29.5-11.7 99.5-9 132.1-9s102.7-2.6 132.1 9c19.6 7.8 34.7 22.9 42.6 42.6 11.7 29.5 9 99.5 9 132.1s2.7 102.7-9 132.1z"></path>

    </symbol>
    <symbol class="symbols" id="linkedin-in" viewBox="0 0 448 512">
    
        <path fill="currentColor" d="M100.3,480H7.4V180.9h92.9V480z M53.8,140.1C24.1,140.1,0,115.5,0,85.8C0,56.1,24.1,32,53.8,32c29.7,0,53.8,24.1,53.8,53.8
        C107.6,115.5,83.5,140.1,53.8,140.1z M447.9,480h-92.7V334.4c0-34.7-0.7-79.2-48.3-79.2c-48.3,0-55.7,37.7-55.7,76.7V480h-92.8
        V180.9h89.1v40.8h1.3c12.4-23.5,42.7-48.3,87.9-48.3c94,0,111.3,61.9,111.3,142.3V480H447.9z"/>
        
    </symbol>
    <symbol class="symbols" id="twitter" viewBox="0 0 18.25 14.822">
    
        <path id="twitter-brands" d="M16.374,51.776c.012.162.012.324.012.486A10.569,10.569,0,0,1,5.744,62.9,10.57,10.57,0,0,1,0,61.225a7.738,7.738,0,0,0,.9.046,7.491,7.491,0,0,0,4.644-1.6,3.747,3.747,0,0,1-3.5-2.594,4.717,4.717,0,0,0,.706.058,3.956,3.956,0,0,0,.984-.127,3.741,3.741,0,0,1-3-3.671v-.046a3.767,3.767,0,0,0,1.691.475,3.746,3.746,0,0,1-1.158-5,10.632,10.632,0,0,0,7.712,3.914,4.222,4.222,0,0,1-.093-.857,3.744,3.744,0,0,1,6.473-2.559,7.364,7.364,0,0,0,2.374-.9A3.73,3.73,0,0,1,16.1,50.421a7.5,7.5,0,0,0,2.154-.579,8.04,8.04,0,0,1-1.876,1.934Z" transform="translate(0 -48.082)" fill="currentColor"/>

    </symbol>
    <symbol class="symbols" id="youtube" viewBox="0 0 576 512">
    
        <path fill="currentColor" d="M549.655 124.083c-6.281-23.65-24.787-42.276-48.284-48.597C458.781 64 288 64 288 64S117.22 64 74.629 75.486c-23.497 6.322-42.003 24.947-48.284 48.597-11.412 42.867-11.412 132.305-11.412 132.305s0 89.438 11.412 132.305c6.281 23.65 24.787 41.5 48.284 47.821C117.22 448 288 448 288 448s170.78 0 213.371-11.486c23.497-6.321 42.003-24.171 48.284-47.821 11.412-42.867 11.412-132.305 11.412-132.305s0-89.438-11.412-132.305zm-317.51 213.508V175.185l142.739 81.205-142.739 81.201z"></path>

    </symbol>

    <symbol class="symbols" id="whatsapp" viewBox="0 0 15.969 15.969">
    
        <path d="M13.577,34.32A7.916,7.916,0,0,0,1.123,43.87L0,47.969l4.2-1.1a7.889,7.889,0,0,0,3.782.962h0a7.863,7.863,0,0,0,5.6-13.509ZM7.981,46.5a6.565,6.565,0,0,1-3.351-.916l-.239-.143L1.9,46.09l.663-2.427-.157-.25a6.59,6.59,0,1,1,12.223-3.5A6.651,6.651,0,0,1,7.981,46.5Zm3.607-4.926c-.2-.1-1.169-.577-1.351-.642s-.314-.1-.446.1-.51.642-.627.777-.232.15-.428.05A5.382,5.382,0,0,1,6.045,39.5c-.2-.349.2-.324.581-1.08a.366.366,0,0,0-.018-.346c-.05-.1-.446-1.073-.61-1.469s-.324-.331-.446-.339-.246-.007-.378-.007a.732.732,0,0,0-.528.246,2.222,2.222,0,0,0-.692,1.65,3.874,3.874,0,0,0,.806,2.046,8.835,8.835,0,0,0,3.379,2.987,3.869,3.869,0,0,0,2.374.5,2.025,2.025,0,0,0,1.333-.941,1.654,1.654,0,0,0,.114-.941C11.916,41.717,11.784,41.667,11.588,41.571Z" transform="translate(0 -32)" fill="currentColor"/>

    </symbol>

    <!-- play -->
    <symbol class="symbols" id="playVideo" viewBox="0 0 143 143">

        <g id="Grupo_761" data-name="Grupo 761" transform="translate(-1278 -483)">
            <g id="Elipse_2" data-name="Elipse 2" transform="translate(1278 483)" fill="rgba(0,0,0,0)" stroke="currentColor" stroke-width="8">
                <circle cx="71.5" cy="71.5" r="71.5" stroke="none"/>
                <circle cx="71.5" cy="71.5" r="67.5" fill="none"/>
            </g>
            <g id="Polígono_2" data-name="Polígono 2" transform="translate(1374.552 524.29) rotate(90)" fill="currentColor">
                <path d="M25.108,6.078a6,6,0,0,1,9.467,0l17.563,22.55A6,6,0,0,1,47.4,38.315H12.278a6,6,0,0,1-4.734-9.687Z" stroke="none"/>
                <path d="M 29.8411865234375 4.764579772949219 C 28.28839683532715 4.764579772949219 26.8505973815918 5.467189788818359 25.89645767211914 6.6922607421875 L 8.333457946777344 29.24227142333984 C 7.724994659423828 30.02352142333984 7.361957550048828 30.93775177001953 7.283596038818359 31.88614082336426 C 7.209815979003906 32.77919006347656 7.383495330810547 33.68646240234375 7.785877227783203 34.50987243652344 C 8.188255310058594 35.33329010009766 8.797317504882812 36.02780151367188 9.547218322753906 36.51832962036133 C 10.34359741210938 37.03926086425781 11.28794479370117 37.31460952758789 12.2781867980957 37.31460952758789 L 47.4041862487793 37.31460952758789 C 48.39442443847656 37.31460952758789 49.33877563476562 37.03926086425781 50.13515472412109 36.51832962036133 C 50.88505554199219 36.02780151367188 51.49411773681641 35.33329010009766 51.8964958190918 34.50987243652344 C 52.29887771606445 33.68646240234375 52.47255706787109 32.77919006347656 52.39876556396484 31.88615036010742 C 52.32040786743164 30.93775177001953 51.95736694335938 30.02352142333984 51.34890747070312 29.24227905273438 L 33.78590393066406 6.6922607421875 C 32.83176422119141 5.467189788818359 31.39397621154785 4.764579772949219 29.8411865234375 4.764579772949219 M 29.84118461608887 3.764579772949219 C 31.60747337341309 3.764579772949219 33.37376403808594 4.535652160644531 34.57484436035156 6.077789306640625 L 52.13784790039062 28.62781143188477 C 55.20694732666016 32.56838226318359 52.39892578125 38.31460952758789 47.4041862487793 38.31460952758789 L 12.2781867980957 38.31460952758789 C 7.283447265625 38.31460952758789 4.475425720214844 32.56838226318359 7.544517517089844 28.62781143188477 L 25.10751724243164 6.077789306640625 C 26.3086051940918 4.535652160644531 28.07489585876465 3.764579772949219 29.84118461608887 3.764579772949219 Z" stroke="none" fill="rgba(0,0,0,0)"/>
            </g>
        </g>

    </symbol>

    <!-- navslide -->
    <symbol class="symbols" id="prevSlide" viewBox="0 0 35.329 20.782">
        <path id="Caminho_19" data-name="Caminho 19" d="M16,992.75a1.747,1.747,0,0,1,.422-1.072l8.313-8.833a1.785,1.785,0,0,1,2.273-.13,1.623,1.623,0,0,1-.016,2.273l-5.845,6.2H49.77a1.559,1.559,0,0,1,0,3.117H21.147l5.845,6.2a1.717,1.717,0,0,1,.016,2.273,1.762,1.762,0,0,1-2.273-.13l-8.313-8.833A1.5,1.5,0,0,1,16,992.75Z" transform="translate(-16 -982.362)" fill="currentColor"/>
    </symbol>
    <symbol class="symbols" id="nextSlide" viewBox="0 0 35.329 20.782">
        
        <path id="Caminho_19" data-name="Caminho 19" d="M51.329,992.75a1.747,1.747,0,0,0-.422-1.072l-8.313-8.833a1.785,1.785,0,0,0-2.273-.13,1.623,1.623,0,0,0,.016,2.273l5.845,6.2H17.559a1.559,1.559,0,0,0,0,3.117H46.182l-5.845,6.2a1.717,1.717,0,0,0-.016,2.273,1.762,1.762,0,0,0,2.273-.13l8.313-8.833A1.5,1.5,0,0,0,51.329,992.75Z" transform="translate(-16 -982.362)" fill="currentColor"/>

    </symbol>


    <!-- navslide Custom -->
    <symbol class="symbols" id="prevSlideCustom" viewBox="0 0 8.847 21.723">
        <path id="Caminho_256" data-name="Caminho 256" d="M5.431.885l5.431,4.423L16.292.885,17.378,0h4.345L16.292,4.423,10.861,8.847,5.431,4.423,0,0H4.345Z" transform="translate(8.847) rotate(90)" fill="#3fbcde" fill-rule="evenodd"/>
    </symbol>
    <symbol class="symbols" id="nextSlideCustom" viewBox="0 0 8.847 21.723">
        <path id="Caminho_255" data-name="Caminho 255" d="M5.431,7.962l5.431-4.423,5.431,4.423,1.086.885h4.345L16.292,4.423,10.861,0,5.431,4.423,0,8.847H4.345Z" transform="translate(8.847) rotate(90)" fill="#3fbcde" fill-rule="evenodd"/>
    </symbol>




    <symbol class="symbols" id="downPage" viewBox="0 0 15.634 85.347">
        <g id="Grupo_36" data-name="Grupo 36" transform="translate(0 85.347) rotate(-90)">
            <g id="Grupo_22" data-name="Grupo 22" transform="translate(1.926 6.67)">
            <rect id="Retângulo_34" data-name="Retângulo 34" width="83.421" height="2.293" transform="translate(0)" fill="currentColor"/>
        </g>
        <g id="Grupo_23" data-name="Grupo 23" transform="translate(0 0)">
            <path id="Caminho_37" data-name="Caminho 37" d="M9.216,0a1.147,1.147,0,0,0-.672.218L1.24,5.51A2.827,2.827,0,0,0,0,7.783a2.834,2.834,0,0,0,1.23,2.279l7.311,5.35a1.146,1.146,0,0,0,1.354-1.85L2.584,8.212a.592.592,0,0,1-.292-.424.594.594,0,0,1,.293-.422l7.3-5.292A1.146,1.146,0,0,0,9.216,0Z" fill="currentColor"/>
            </g>
        </g>
    </symbol>
    
    <symbol class="symbols" id="upPage" viewBox="0 0 15.634 85.347">
       <g id="Grupo_24" data-name="Grupo 24" transform="translate(6430.634 -1966.208) rotate(90)">
        <g id="Grupo_22" data-name="Grupo 22" transform="translate(1968.134 6421.671)">
        <rect id="Retângulo_34" data-name="Retângulo 34" width="83.421" height="2.293" transform="translate(0 0)" fill="currentColor"/>
        </g>
        <g id="Grupo_23" data-name="Grupo 23" transform="translate(1966.208 6415)">
        <path id="Caminho_37" data-name="Caminho 37" d="M22.424,58.5a1.147,1.147,0,0,1-.672-.218l-7.3-5.292a2.715,2.715,0,0,1-.01-4.552l7.311-5.35a1.146,1.146,0,0,1,1.354,1.85l-7.311,5.35a.452.452,0,0,0,0,.846l7.3,5.292a1.146,1.146,0,0,1-.673,2.074Z" transform="translate(-13.208 -42.861)" fill="currentColor"/>
        </g>
    </g>
    </symbol>

    <symbol class="symbols" id="sendNewsletter" viewBox="0 0 25.07 24.777">
        <path id="Caminho_36" data-name="Caminho 36" d="M36.113,28.3a.578.578,0,0,0-.829-.8L24.922,36.316,19.449,34.2a1.331,1.331,0,0,1-.155-2.415L42.012,19.058a1.12,1.12,0,0,1,1.646,1.092L41.665,40.923a1.375,1.375,0,0,1-1.881,1.148l-6.66-2.579L28.943,43.41a1.08,1.08,0,0,1-1.817-.8V39.536Z" transform="translate(-18.594 -18.924)" fill="currentColor"/>
    </symbol>

    <symbol class="symbols" id="btnMais" viewBox="0 0 40.141 40.141">
        <g id="Grupo_445" data-name="Grupo 445" transform="translate(0.5 0.5)">
            <path id="Caminho_2" data-name="Caminho 2" d="M54.563,48.737H46.433V40.608H44.955v8.129H36.826v1.478h8.129v8.129h1.478V50.215h8.129Z" transform="translate(-26.207 -29.86)" fill="#282828" stroke="#fff" stroke-width="1"/>
            <circle id="Elipse_1" data-name="Elipse 1" cx="19.571" cy="19.571" r="19.571" fill="none" stroke="#fff" stroke-miterlimit="10" stroke-width="1"/>
        </g>
    </symbol>

    <symbol class="symbols" id="topo" viewBox="0 0 10.014 76.689">
      <g id="Componente_11" data-name="Componente 11" transform="translate(9 25.689) rotate(-90)">
        <path id="Caminho_3" data-name="Caminho 3" d="M-49.166,5.841H23.841L21.093,8.589a.834.834,0,1,0,1.18,1.18L26.445,5.6a.834.834,0,0,0,0-1.18L22.273.244a.834.834,0,1,0-1.18,1.18l2.748,2.748H-49.166A.834.834,0,0,0-50,5.007.834.834,0,0,0-49.166,5.841Z" transform="translate(-1 -9)" fill="#153c4c"/>
      </g>
    </symbol>

     <symbol class="symbols" id="rightCTA" viewBox="0 0 20 12">
        <path id="Caminho_3" data-name="Caminho 3" d="M10,15H25.586l-3.293-3.293a1,1,0,1,1,1.414-1.414l5,5a1,1,0,0,1,0,1.414l-5,5a1,1,0,1,1-1.414-1.414L25.586,17H10a1,1,0,0,1,0-2Z" transform="translate(-9 -10)" fill="currentColor"/>
    </symbol>



</svg>